<svg width="26" height="26" viewBox="0 0 26 26" fill="none" xmlns="http://www.w3.org/2000/svg">
<g clip-path="url(#clip0_1345_3075)">
<path d="M12.75 0.25C10.2778 0.25 7.86099 0.983172 5.80538 2.35669C3.74977 3.73021 2.14759 5.68248 1.2015 7.96655C0.255403 10.2506 0.00787903 12.764 0.490194 15.1887C0.97251 17.6135 2.16306 19.8407 3.91121 21.5889C5.65937 23.337 7.88666 24.5275 10.3114 25.0098C12.7362 25.4921 15.2495 25.2447 17.5336 24.2986C19.8177 23.3525 21.7699 21.7502 23.1434 19.6946C24.5169 17.639 25.25 15.2223 25.25 12.75C25.25 9.43479 23.933 6.25534 21.5888 3.91113C19.2446 1.56693 16.0652 0.25 12.75 0.25ZM22.32 6.37988C23.2541 7.78532 23.8654 9.38033 24.11 11.05L23.51 11.27L21.51 9.3501L21.83 6.57007L22.32 6.37988ZM10.25 1.53003C11.8958 1.15667 13.6043 1.15667 15.25 1.53003V1.97998L12.75 3.22998L10.25 1.97998V1.53003ZM3.18001 6.37988L3.70003 6.57007L4.02004 9.3501L2.02004 11.27L1.42 11.05C1.65552 9.38274 2.25652 7.78791 3.18001 6.37988ZM7.29 22.8701C5.81395 22.0619 4.53109 20.9428 3.53005 19.5901L4.06002 18.98L6.78005 19.6399L7.89004 22.1899L7.29 22.8701ZM18.2 22.8701L17.61 22.1899L18.72 19.6399L21.45 18.98L21.98 19.5901C20.9888 20.9406 19.7161 22.0597 18.25 22.8701H18.2ZM22 18.1001C21.9406 18.0314 21.8636 17.9801 21.7772 17.9519C21.6909 17.9237 21.5985 17.9196 21.51 17.9399L18.24 18.72C18.1647 18.7386 18.0949 18.7746 18.0358 18.825C17.9768 18.8753 17.9303 18.9386 17.9 19.01L16.57 22.0901C16.53 22.1749 16.5162 22.2696 16.5304 22.3623C16.5447 22.455 16.5864 22.5413 16.65 22.6101L17.27 23.3201C15.8477 23.928 14.3169 24.2415 12.77 24.2415C11.2232 24.2415 9.69241 23.928 8.27004 23.3201L8.89004 22.6101C8.95371 22.5413 8.99535 22.455 9.0096 22.3623C9.02386 22.2696 9.01004 22.1749 8.96999 22.0901L7.64004 19.01C7.60974 18.9386 7.56324 18.8753 7.50423 18.825C7.44522 18.7746 7.37529 18.7386 7.30001 18.72L4.03005 17.9399C3.94155 17.9196 3.84917 17.9237 3.76284 17.9519C3.67651 17.9801 3.59944 18.0314 3.54 18.1001L2.99001 18.73C1.8762 16.9271 1.28746 14.8492 1.29 12.73C1.29 12.5 1.29 12.28 1.29 12.05L1.95003 12.29H2.12002C2.24812 12.288 2.37163 12.242 2.46999 12.1599L4.90005 9.8501C4.95702 9.79696 5.00103 9.7315 5.02877 9.65869C5.0565 9.58589 5.0672 9.50751 5.06002 9.42993L4.67 6.1001C4.65902 6.0079 4.62355 5.92029 4.56728 5.84644C4.51101 5.77258 4.43598 5.71499 4.35 5.67993L3.81002 5.48999C5.22356 3.73902 7.11782 2.43913 9.26003 1.75V2.23999C9.25984 2.3337 9.28596 2.42556 9.33547 2.50513C9.38498 2.58469 9.45585 2.64871 9.54 2.68994L12.54 4.18994C12.6087 4.22279 12.6839 4.23999 12.76 4.23999C12.8362 4.23999 12.9113 4.22279 12.98 4.18994L15.98 2.68994C16.0642 2.64871 16.135 2.58469 16.1845 2.50513C16.234 2.42556 16.2602 2.3337 16.26 2.23999V1.75C18.4022 2.43913 20.2965 3.73902 21.71 5.48999L21.17 5.67993C21.084 5.71499 21.009 5.77258 20.9527 5.84644C20.8964 5.92029 20.861 6.0079 20.85 6.1001L20.46 9.42993C20.4529 9.50751 20.4635 9.58589 20.4912 9.65869C20.519 9.7315 20.563 9.79696 20.62 9.8501L23.05 12.1599C23.1484 12.242 23.2719 12.288 23.4 12.29C23.4563 12.2996 23.5138 12.2996 23.57 12.29L24.23 12.05C24.23 12.28 24.23 12.5 24.23 12.73C24.231 14.849 23.6424 16.9264 22.5301 18.73L22 18.1001ZM13.06 8.36011C12.9725 8.28863 12.863 8.24951 12.75 8.24951C12.637 8.24951 12.5275 8.28863 12.44 8.36011L8.44002 11.46C8.35836 11.5184 8.29708 11.601 8.26479 11.696C8.2325 11.7911 8.23083 11.8939 8.26003 11.99L9.59005 16.8799C9.61895 16.9873 9.68282 17.0822 9.77157 17.1492C9.86031 17.2162 9.96885 17.2516 10.08 17.25H15.4C15.5112 17.2516 15.6198 17.2162 15.7085 17.1492C15.7973 17.0822 15.8611 16.9873 15.89 16.8799L17.22 11.99C17.2492 11.8939 17.2476 11.7911 17.2153 11.696C17.183 11.601 17.1217 11.5184 17.04 11.46L13.06 8.36011ZM15.06 16.25H10.5L9.35 12.05L12.7801 9.37988L16.21 12.05L15.06 16.25Z" fill="#0F2041" stroke="#0F2041" stroke-width="0.5" stroke-miterlimit="10"/>
</g>
<defs>
<clipPath id="clip0_1345_3075">
<rect width="25.5" height="25.5" fill="white"/>
</clipPath>
</defs>
</svg>
