<svg width="18" height="26" viewBox="0 0 18 26" fill="none" xmlns="http://www.w3.org/2000/svg">
<g clip-path="url(#clip0_1345_3084)">
<path d="M6.75 0.25C6.61739 0.25 6.49019 0.302655 6.39642 0.396423C6.30266 0.490192 6.25 0.617392 6.25 0.75V7.25H4.25V0.75C4.25 0.617392 4.19734 0.490192 4.10358 0.396423C4.00981 0.302655 3.88261 0.25 3.75 0.25C3.61739 0.25 3.49019 0.302655 3.39642 0.396423C3.30266 0.490192 3.25 0.617392 3.25 0.75V7.25H1.25V0.75C1.25 0.617392 1.19734 0.490192 1.10358 0.396423C1.00981 0.302655 0.882608 0.25 0.75 0.25C0.617392 0.25 0.490192 0.302655 0.396423 0.396423C0.302655 0.490192 0.25 0.617392 0.25 0.75V9.25C0.25 9.78043 0.460743 10.2891 0.835815 10.6642C1.21089 11.0393 1.71957 11.25 2.25 11.25H3.25V15.34C2.95903 15.4444 2.70709 15.6356 2.52826 15.8878C2.34943 16.1399 2.25231 16.4409 2.25 16.75V23.75C2.25 24.1478 2.40803 24.5294 2.68933 24.8107C2.97064 25.092 3.35218 25.25 3.75 25.25C4.14782 25.25 4.52936 25.092 4.81067 24.8107C5.09197 24.5294 5.25 24.1478 5.25 23.75V16.75C5.24769 16.4409 5.15057 16.1399 4.97174 15.8878C4.79291 15.6356 4.54097 15.4444 4.25 15.34V11.25H5.25C5.78043 11.25 6.28911 11.0393 6.66418 10.6642C7.03926 10.2891 7.25 9.78043 7.25 9.25V0.75C7.25 0.617392 7.19734 0.490192 7.10358 0.396423C7.00981 0.302655 6.88261 0.25 6.75 0.25ZM4.25 23.75C4.25 23.8826 4.19734 24.0098 4.10358 24.1036C4.00981 24.1973 3.88261 24.25 3.75 24.25C3.61739 24.25 3.49019 24.1973 3.39642 24.1036C3.30266 24.0098 3.25 23.8826 3.25 23.75V16.75C3.25 16.6174 3.30266 16.4902 3.39642 16.3964C3.49019 16.3027 3.61739 16.25 3.75 16.25C3.88261 16.25 4.00981 16.3027 4.10358 16.3964C4.19734 16.4902 4.25 16.6174 4.25 16.75V23.75ZM6.25 9.25C6.25 9.51522 6.14463 9.76956 5.95709 9.95709C5.76956 10.1446 5.51522 10.25 5.25 10.25H2.25C1.98478 10.25 1.73044 10.1446 1.54291 9.95709C1.35537 9.76956 1.25 9.51522 1.25 9.25V8.25H6.25V9.25ZM17.25 7.25C17.25 3.94 15.68 0.25 13.75 0.25C11.82 0.25 10.25 3.94 10.25 7.25C10.25 10.25 11.56 11.92 13.25 12.19V15.34C12.959 15.4444 12.7071 15.6356 12.5283 15.8878C12.3494 16.1399 12.2523 16.4409 12.25 16.75V23.75C12.25 24.1478 12.408 24.5294 12.6893 24.8107C12.9706 25.092 13.3522 25.25 13.75 25.25C14.1478 25.25 14.5294 25.092 14.8107 24.8107C15.092 24.5294 15.25 24.1478 15.25 23.75V16.75C15.2477 16.4409 15.1506 16.1399 14.9717 15.8878C14.7929 15.6356 14.541 15.4444 14.25 15.34V12.19C15.94 11.92 17.25 10.25 17.25 7.25ZM14.25 23.75C14.25 23.8826 14.1973 24.0098 14.1036 24.1036C14.0098 24.1973 13.8826 24.25 13.75 24.25C13.6174 24.25 13.4902 24.1973 13.3964 24.1036C13.3027 24.0098 13.25 23.8826 13.25 23.75V16.75C13.25 16.6174 13.3027 16.4902 13.3964 16.3964C13.4902 16.3027 13.6174 16.25 13.75 16.25C13.8826 16.25 14.0098 16.3027 14.1036 16.3964C14.1973 16.4902 14.25 16.6174 14.25 16.75V23.75ZM13.75 11.25C12.21 11.25 11.25 9.72 11.25 7.25C11.25 4 12.79 1.25 13.75 1.25C14.71 1.25 16.25 4 16.25 7.25C16.25 9.72 15.25 11.25 13.75 11.25Z" fill="#0F2041" stroke="#0F2041" stroke-width="0.5" stroke-miterlimit="10"/>
</g>
<defs>
<clipPath id="clip0_1345_3084">
<rect width="17.5" height="25.5" fill="white"/>
</clipPath>
</defs>
</svg>
