<svg width="18" height="26" viewBox="0 0 18 26" fill="none" xmlns="http://www.w3.org/2000/svg">
<g clip-path="url(#clip0_1345_3112)">
<path fill-rule="evenodd" clip-rule="evenodd" d="M17.25 14.25V2.75C17.25 2.08696 16.9866 1.45126 16.5178 0.982422C16.0489 0.513581 15.413 0.25 14.75 0.25C14.087 0.25 13.4511 0.513581 12.9822 0.982422C12.5134 1.45126 12.25 2.08696 12.25 2.75V5.75C11.8182 5.42252 11.2919 5.24384 10.75 5.24023C10.521 5.55626 10.2203 5.81333 9.87268 5.99072C9.52504 6.16812 9.14029 6.26074 8.75 6.26074C8.35971 6.26074 7.97496 6.16812 7.62732 5.99072C7.27968 5.81333 6.97903 5.55626 6.75 5.24023C6.20805 5.24384 5.68183 5.42252 5.25 5.75V4.75C5.25 4.08696 4.9866 3.45126 4.51776 2.98242C4.04892 2.51358 3.41304 2.25 2.75 2.25C2.08696 2.25 1.45108 2.51358 0.982239 2.98242C0.513398 3.45126 0.25 4.08696 0.25 4.75V14.25C0.25193 15.3409 0.508827 16.4161 1.00018 17.3901C1.49154 18.3642 2.20377 19.21 3.08002 19.8599L2.08002 21.52C1.9187 21.795 1.82544 22.1045 1.80804 22.4229C1.79065 22.7412 1.84959 23.0592 1.97998 23.3501C2.10956 23.6389 2.30587 23.8926 2.55273 24.0908C2.7996 24.289 3.09 24.4262 3.40002 24.4902C5.32292 24.9144 7.28164 25.1552 9.25 25.21C10.9374 25.1866 12.616 24.9618 14.25 24.54C14.5511 24.4654 14.8308 24.3219 15.0668 24.1206C15.3029 23.9193 15.4888 23.6655 15.61 23.3799C15.7307 23.0928 15.7828 22.7815 15.762 22.4707C15.7411 22.1599 15.648 21.8583 15.49 21.5898L14.49 19.8599C15.3534 19.2027 16.0521 18.354 16.5311 17.3804C17.0101 16.4068 17.2562 15.335 17.25 14.25ZM13.25 7.75V2.75C13.25 2.35218 13.408 1.97076 13.6893 1.68945C13.9706 1.40815 14.3522 1.25 14.75 1.25C15.1478 1.25 15.5294 1.40815 15.8107 1.68945C16.092 1.97076 16.25 2.35218 16.25 2.75V10.25H13.25V7.75ZM9.25 7.75C9.25 7.35218 9.40803 6.97076 9.68933 6.68945C9.97064 6.40815 10.3522 6.25 10.75 6.25C11.1478 6.25 11.5294 6.40815 11.8107 6.68945C12.092 6.97076 12.25 7.35218 12.25 7.75V10.25H9.25V7.75ZM5.25 7.75C5.25 7.35218 5.40803 6.97076 5.68933 6.68945C5.97064 6.40815 6.35218 6.25 6.75 6.25C7.14782 6.25 7.52936 6.40815 7.81067 6.68945C8.09197 6.97076 8.25 7.35218 8.25 7.75V10.25H6.75C6.20942 10.2521 5.68374 10.4274 5.25 10.75V7.75ZM14.59 22.1299C14.6695 22.2634 14.7168 22.4134 14.7281 22.5684C14.7394 22.7233 14.7145 22.8788 14.6553 23.0225C14.5961 23.1661 14.5042 23.294 14.387 23.396C14.2698 23.498 14.1304 23.5711 13.98 23.6099C12.4339 24.0083 10.8463 24.2232 9.25 24.25C7.34885 24.1948 5.45712 23.9602 3.59998 23.5498C3.44518 23.5173 3.30033 23.4489 3.17725 23.3496C3.05417 23.2503 2.95639 23.123 2.89197 22.9785C2.82755 22.8341 2.79829 22.6765 2.80664 22.5186C2.81499 22.3606 2.86072 22.2067 2.94 22.0698L3.94 20.4102C4.16908 20.5329 4.40633 20.6397 4.65002 20.73L4.85999 20.8101C5.03349 20.879 5.21042 20.9392 5.39001 20.9902L5.65997 21.0498C5.84104 21.097 6.02472 21.1341 6.21002 21.1602H6.45001C6.7222 21.1921 6.99597 21.2086 7.27002 21.21H10.27C10.5441 21.2086 10.8178 21.1921 11.09 21.1602H11.33C11.5153 21.1341 11.6989 21.097 11.88 21.0498L12.15 20.9902C12.3296 20.9392 12.5065 20.879 12.68 20.8101L12.89 20.73C13.1337 20.6397 13.3709 20.5329 13.6 20.4102L14.59 22.1299ZM13.16 19.5H13.1C12.2217 19.9657 11.2441 20.2129 10.25 20.2202H7.25C6.2329 20.2147 5.23308 19.957 4.34003 19.4702C3.40764 18.9531 2.62983 18.1968 2.08673 17.2793C1.54363 16.3618 1.25482 15.3162 1.25 14.25V4.75C1.25 4.35218 1.40803 3.97076 1.68933 3.68945C1.97064 3.40815 2.35218 3.25 2.75 3.25C3.14782 3.25 3.52936 3.40815 3.81067 3.68945C4.09197 3.97076 4.25 4.35218 4.25 4.75V12.75C4.25 13.413 4.5134 14.0487 4.98224 14.5176C5.45108 14.9864 6.08696 15.25 6.75 15.25H11.75C11.8826 15.25 12.0098 15.1973 12.1036 15.1035C12.1973 15.0097 12.25 14.8826 12.25 14.75C12.25 14.6174 12.1973 14.4903 12.1036 14.3965C12.0098 14.3027 11.8826 14.25 11.75 14.25H6.75C6.35218 14.25 5.97064 14.0919 5.68933 13.8105C5.40803 13.5292 5.25 13.1478 5.25 12.75C5.25 12.3522 5.40803 11.9708 5.68933 11.6895C5.97064 11.4081 6.35218 11.25 6.75 11.25H15.25C15.5152 11.25 15.7696 11.3554 15.9571 11.543C16.1446 11.7305 16.25 11.9848 16.25 12.25V14.25C16.2505 15.3213 15.9642 16.3732 15.4208 17.2964C14.8775 18.2196 14.0968 18.9804 13.16 19.5Z" fill="#0F2041" fill-opacity="0.6" stroke="#0F2041" stroke-opacity="0.6" stroke-width="0.5" stroke-miterlimit="10"/>
</g>
<defs>
<clipPath id="clip0_1345_3112">
<rect width="17.5" height="25.5" fill="white"/>
</clipPath>
</defs>
</svg>
