<svg width="23" height="26" viewBox="0 0 23 26" fill="none" xmlns="http://www.w3.org/2000/svg">
<g clip-path="url(#clip0_1341_2832)">
<path d="M10.75 10.25H13.75C13.8826 10.25 14.0098 10.1973 14.1036 10.1035C14.1973 10.0097 14.25 9.88261 14.25 9.75V6.75C14.25 6.61739 14.1973 6.49025 14.1036 6.39648C14.0098 6.30272 13.8826 6.25 13.75 6.25H10.75C10.6174 6.25 10.4902 6.30272 10.3964 6.39648C10.3027 6.49025 10.25 6.61739 10.25 6.75V9.75C10.25 9.88261 10.3027 10.0097 10.3964 10.1035C10.4902 10.1973 10.6174 10.25 10.75 10.25ZM11.25 7.25H13.25V9.25H11.25V7.25ZM4.75 10.25H7.75C7.88261 10.25 8.00981 10.1973 8.10358 10.1035C8.19734 10.0097 8.25 9.88261 8.25 9.75V6.75C8.25 6.61739 8.19734 6.49025 8.10358 6.39648C8.00981 6.30272 7.88261 6.25 7.75 6.25H4.75C4.61739 6.25 4.49019 6.30272 4.39642 6.39648C4.30266 6.49025 4.25 6.61739 4.25 6.75V9.75C4.25 9.88261 4.30266 10.0097 4.39642 10.1035C4.49019 10.1973 4.61739 10.25 4.75 10.25ZM5.25 7.25H7.25V9.25H5.25V7.25ZM10.75 16.25H13.75C13.8826 16.25 14.0098 16.1973 14.1036 16.1035C14.1973 16.0097 14.25 15.8826 14.25 15.75V12.75C14.25 12.6174 14.1973 12.4903 14.1036 12.3965C14.0098 12.3027 13.8826 12.25 13.75 12.25H10.75C10.6174 12.25 10.4902 12.3027 10.3964 12.3965C10.3027 12.4903 10.25 12.6174 10.25 12.75V15.75C10.25 15.8826 10.3027 16.0097 10.3964 16.1035C10.4902 16.1973 10.6174 16.25 10.75 16.25ZM11.25 13.25H13.25V15.25H11.25V13.25ZM8.25 12.75C8.25 12.6174 8.19734 12.4903 8.10358 12.3965C8.00981 12.3027 7.88261 12.25 7.75 12.25H4.75C4.61739 12.25 4.49019 12.3027 4.39642 12.3965C4.30266 12.4903 4.25 12.6174 4.25 12.75V15.75C4.25 15.8826 4.30266 16.0097 4.39642 16.1035C4.49019 16.1973 4.61739 16.25 4.75 16.25H7.75C7.88261 16.25 8.00981 16.1973 8.10358 16.1035C8.19734 16.0097 8.25 15.8826 8.25 15.75V12.75ZM7.25 15.25H5.25V13.25H7.25V15.25ZM19.75 20.25C19.2755 20.2508 18.811 20.3866 18.4108 20.6416C18.0106 20.8966 17.6912 21.2602 17.49 21.6899C17.4139 21.6309 17.3337 21.5775 17.25 21.53V4.15991C17.541 4.05551 17.7929 3.86446 17.9717 3.6123C18.1506 3.36015 18.2477 3.05913 18.25 2.75V1.75C18.25 1.35218 18.092 0.970758 17.8107 0.689453C17.5294 0.408149 17.1478 0.25 16.75 0.25H1.75C1.35218 0.25 0.970636 0.408149 0.689331 0.689453C0.408026 0.970758 0.25 1.35218 0.25 1.75V2.75C0.25231 3.05913 0.349425 3.36015 0.528259 3.6123C0.707093 3.86446 0.959028 4.05551 1.25 4.15991V24.25H0.75C0.617392 24.25 0.490192 24.3027 0.396423 24.3965C0.302655 24.4903 0.25 24.6174 0.25 24.75C0.25 24.8826 0.302655 25.0097 0.396423 25.1035C0.490192 25.1973 0.617392 25.25 0.75 25.25H19.75C20.413 25.25 21.0489 24.9867 21.5178 24.5178C21.9866 24.049 22.25 23.413 22.25 22.75C22.25 22.087 21.9866 21.451 21.5178 20.9822C21.0489 20.5133 20.413 20.25 19.75 20.25ZM1.25 1.75C1.25 1.61739 1.30266 1.49025 1.39642 1.39648C1.49019 1.30272 1.61739 1.25 1.75 1.25H16.75C16.8826 1.25 17.0098 1.30272 17.1036 1.39648C17.1973 1.49025 17.25 1.61739 17.25 1.75V2.75C17.25 2.88261 17.1973 3.00975 17.1036 3.10352C17.0098 3.19728 16.8826 3.25 16.75 3.25H1.75C1.61739 3.25 1.49019 3.19728 1.39642 3.10352C1.30266 3.00975 1.25 2.88261 1.25 2.75V1.75ZM5.25 24.25V20.25H7.25V24.25H5.25ZM7.25 19.25H5.25C4.98478 19.25 4.73044 19.3554 4.54291 19.543C4.35537 19.7305 4.25 19.9848 4.25 20.25V24.25H2.25V4.25H16.25V21.25C15.8999 21.2521 15.5566 21.3461 15.2542 21.5225C14.9518 21.6989 14.7011 21.9514 14.527 22.2551C14.3529 22.5588 14.2615 22.9029 14.262 23.2529C14.2626 23.603 14.355 23.9468 14.53 24.25H8.25V20.25C8.25 19.9848 8.14463 19.7305 7.95709 19.543C7.76956 19.3554 7.51522 19.25 7.25 19.25ZM19.75 24.25H16.25C16.0899 24.2509 15.932 24.2134 15.7894 24.1406C15.6469 24.0678 15.5239 23.9618 15.4308 23.8315C15.3377 23.7013 15.2772 23.5508 15.2544 23.3923C15.2316 23.2339 15.2472 23.0723 15.2999 22.9211C15.3525 22.77 15.4407 22.6337 15.557 22.5237C15.6733 22.4137 15.8143 22.333 15.9681 22.2888C16.122 22.2446 16.2842 22.238 16.4411 22.2695C16.598 22.301 16.7451 22.3698 16.87 22.47C17.0459 22.6111 17.2644 22.6886 17.49 22.6899H17.72C17.8676 22.6558 18.0055 22.5884 18.1233 22.4932C18.2411 22.3979 18.3357 22.2771 18.4 22.1399C18.5174 21.8803 18.7072 21.6602 18.9467 21.5059C19.1862 21.3515 19.4651 21.2697 19.75 21.27C20.1478 21.27 20.5294 21.4279 20.8107 21.7092C21.092 21.9905 21.25 22.3722 21.25 22.77C21.25 23.1678 21.092 23.5493 20.8107 23.8306C20.5294 24.1119 20.1478 24.27 19.75 24.27V24.25ZM10.25 19.75C10.25 19.6174 10.3027 19.4903 10.3964 19.3965C10.4902 19.3027 10.6174 19.25 10.75 19.25H13.75C13.8826 19.25 14.0098 19.3027 14.1036 19.3965C14.1973 19.4903 14.25 19.6174 14.25 19.75C14.25 19.8826 14.1973 20.0097 14.1036 20.1035C14.0098 20.1973 13.8826 20.25 13.75 20.25H10.75C10.6174 20.25 10.4902 20.1973 10.3964 20.1035C10.3027 20.0097 10.25 19.8826 10.25 19.75Z" fill="white" stroke="white" stroke-width="0.5" stroke-miterlimit="10"/>
</g>
<defs>
<clipPath id="clip0_1341_2832">
<rect width="22.5" height="25.5" fill="white"/>
</clipPath>
</defs>
</svg>
