<svg width="91" height="32" viewBox="0 0 91 32" fill="none" xmlns="http://www.w3.org/2000/svg">
<path d="M23.7256 31.9987H23.6165V27.931H23.7256C24.3965 27.9355 25.0581 27.7749 25.651 27.4636C26.2439 27.1522 26.7496 26.6998 27.1227 26.1471L21.4092 12.4356H25.9963L29.2898 20.3433L32.0781 12.4392L36.5722 12.4348L31.5721 26.6141C30.9887 28.2057 29.9214 29.5786 28.5173 30.5433C27.1133 31.5079 25.4418 32.0168 23.7336 31.9996L23.7256 31.9987ZM63.6037 24.6432C62.2872 23.2754 61.5504 21.4588 61.5454 19.5683C61.5405 17.6777 62.2676 15.8574 63.5769 14.4828C64.2661 13.8008 65.0897 13.267 65.9963 12.9146C66.9028 12.5622 67.873 12.3989 68.8461 12.4348C69.7732 12.4073 70.6956 12.5758 71.5519 12.9289C72.4083 13.282 73.1791 13.8117 73.8131 14.4828C74.4759 15.1489 74.9954 15.9415 75.34 16.8126C75.6847 17.6836 75.8474 18.6149 75.8183 19.5501C75.8196 20.0934 75.7641 20.6354 75.6529 21.1675L65.9084 21.1719C66.376 22.4374 67.4738 23.0577 69.2028 23.0577C69.6903 23.0829 70.1777 23.0046 70.6322 22.8279C71.0867 22.6512 71.4979 22.3803 71.8383 22.0333L75.1308 23.8872C74.4475 24.8086 73.542 25.5455 72.4972 26.0304C71.4523 26.5153 70.3015 26.7327 69.15 26.6628C68.1364 26.7104 67.1233 26.5562 66.1708 26.2093C65.2182 25.8624 64.3453 25.3299 63.6037 24.6432ZM65.8244 18.1535H71.7247C71.5856 17.5079 71.213 16.9351 70.677 16.5432C70.1411 16.1514 69.479 15.9676 68.8157 16.0266C68.1412 15.9582 67.4647 16.1367 66.9137 16.5285C66.3628 16.9202 65.9753 17.4982 65.8244 18.1535ZM48.1672 23.4574L51.728 21.4626C51.8729 21.9528 52.1837 22.3787 52.6082 22.6684C53.0327 22.9582 53.5449 23.0941 54.0586 23.0533C55.042 23.0533 55.5382 22.7874 55.5382 22.2185C55.5382 21.6797 54.4654 21.3562 53.153 21.0327C51.2613 20.5179 48.7948 19.6042 48.7948 16.8552C48.7683 16.2293 48.894 15.6063 49.1613 15.0388C49.4286 14.4712 49.8297 13.9756 50.3307 13.5939C51.4439 12.7958 52.7937 12.3883 54.1668 12.4356C55.2359 12.4027 56.2945 12.6526 57.2339 13.1596C58.1733 13.6665 58.9596 14.4123 59.5119 15.3202L56.0039 17.1813C55.844 16.8301 55.5858 16.5318 55.26 16.3217C54.9343 16.1115 54.5546 15.9983 54.1659 15.9955C53.3988 15.9955 53.0135 16.2384 53.0135 16.7506C53.0135 17.2885 54.0863 17.5845 55.4014 17.9355C57.2922 18.3396 59.7873 19.3108 59.7596 22.2477C59.7946 22.8937 59.6617 23.5378 59.3737 24.1183C59.0857 24.6988 58.6522 25.1962 58.1146 25.563C56.9057 26.3276 55.4919 26.7125 54.0586 26.6673C51.1818 26.6646 49.2078 25.587 48.1672 23.4574ZM35.6782 23.4574L39.2407 21.4626C39.3856 21.9528 39.6965 22.3787 40.1209 22.6684C40.5454 22.9582 41.0577 23.0941 41.5714 23.0533C42.5548 23.0533 43.0509 22.7874 43.0509 22.2185C43.0509 21.6797 41.9781 21.3562 40.6658 21.0327C38.7795 20.5179 36.3084 19.6042 36.3084 16.8552C36.2818 16.2295 36.4073 15.6066 36.6743 15.0391C36.9412 14.4715 37.3419 13.9759 37.8425 13.5939C38.9566 12.7961 40.3069 12.3886 41.6804 12.4356C42.7494 12.4026 43.808 12.6524 44.7472 13.1594C45.6865 13.6664 46.4726 14.4122 47.0247 15.3202L43.5167 17.1813C43.3568 16.8301 43.0987 16.5317 42.7729 16.3215C42.4471 16.1113 42.0673 15.9982 41.6787 15.9955C40.9116 15.9955 40.5263 16.2384 40.5263 16.7506C40.5308 17.2885 41.5991 17.5845 42.9141 17.9355C44.8005 18.3396 47.301 19.3108 47.2741 22.2477C47.3088 22.8938 47.1757 23.5378 46.8875 24.1182C46.5994 24.6987 46.1658 25.1961 45.6283 25.563C44.4193 26.3276 43.0056 26.7125 41.5723 26.6673C38.6981 26.6646 36.7197 25.587 35.6782 23.4574ZM15.1629 26.6646V7.09623H19.623V26.6628L15.1629 26.6646ZM0 20.1953V12.4339H4.19011V20.1953C4.17356 20.6347 4.27861 21.0702 4.49387 21.4546C4.70913 21.839 5.02638 22.1578 5.4113 22.3762C5.80102 22.5999 6.2434 22.7177 6.69373 22.7177C7.14407 22.7177 7.58644 22.5999 7.97617 22.3762C8.36108 22.1578 8.67833 21.839 8.89359 21.4546C9.10885 21.0702 9.2139 20.6347 9.19735 20.1953V12.4339H13.383V20.1953C13.3426 21.9275 12.6201 23.5753 11.3699 24.7863C10.1197 25.9972 8.44121 26.6752 6.69329 26.6752C4.94538 26.6752 3.26685 25.9972 2.01669 24.7863C0.766523 23.5753 0.043978 21.9275 0.00357399 20.1953H0ZM84.8744 19.0982L78.9741 14.5395C78.5301 14.174 78.2487 13.6503 78.1904 13.0811C78.132 12.512 78.3014 11.9429 78.6621 11.4963L81.3673 8.09233C81.4656 7.96737 81.3414 7.79102 81.2028 7.85748L74.8117 10.9441C74.5498 11.0731 74.2609 11.1388 73.9685 11.136C73.6761 11.1333 73.3885 11.0621 73.1292 10.9282L68.459 8.5124C68.2368 8.38282 68.0568 8.1928 67.9402 7.96488C67.8236 7.73696 67.7754 7.48068 67.8013 7.22643C67.8272 6.97218 67.926 6.73061 68.0862 6.53036C68.2463 6.33011 68.461 6.17957 68.7048 6.09659L88.614 0.063279C88.9291 -0.0198514 89.2605 -0.0210952 89.5763 0.0596685C89.892 0.140432 90.1814 0.300486 90.4166 0.524382C90.6518 0.748277 90.8249 1.02846 90.9191 1.33793C91.0133 1.64741 91.0254 1.97572 90.9544 2.29121L88.4736 17.4932C88.3999 18.0506 88.1284 18.5637 87.7077 18.9406C87.287 19.3175 86.7447 19.5336 86.1778 19.5501C85.7044 19.5495 85.245 19.3902 84.8744 19.0982Z" fill="#0F2041"/>
</svg>
