<svg width="16" height="15" viewBox="0 0 16 15" fill="none" xmlns="http://www.w3.org/2000/svg">
<g clip-path="url(#clip0_1345_3100)">
<path d="M7.65928 6.16504V11.8651C7.65928 11.9535 7.69513 12.0382 7.75898 12.1007C7.82282 12.1633 7.90942 12.1984 7.99971 12.1984C8.09 12.1984 8.1766 12.1633 8.24044 12.1007C8.30428 12.0382 8.34013 11.9535 8.34013 11.8651V6.16504C9.11835 6.07984 9.83371 5.70611 10.3393 5.1206C10.8449 4.5351 11.1024 3.78233 11.0588 3.01676C11.0152 2.2512 10.6739 1.53095 10.105 1.00407C9.5361 0.477193 8.78277 0.183594 7.99971 0.183594C7.21664 0.183594 6.46331 0.477193 5.89441 1.00407C5.3255 1.53095 4.98419 2.2512 4.94062 3.01676C4.89705 3.78233 5.15452 4.5351 5.66011 5.1206C6.16571 5.70611 6.88107 6.07984 7.65928 6.16504ZM7.99971 0.865072C8.47102 0.865072 8.93176 1.00191 9.32364 1.2583C9.71552 1.51469 10.0209 1.87914 10.2013 2.3055C10.3817 2.73186 10.4288 3.20102 10.3369 3.65365C10.2449 4.10627 10.018 4.52198 9.68472 4.84831C9.35145 5.17463 8.92685 5.39678 8.46459 5.48682C8.00234 5.57685 7.5232 5.53077 7.08777 5.35417C6.65233 5.17756 6.28017 4.87834 6.01833 4.49463C5.75648 4.11091 5.61673 3.65989 5.61673 3.1984C5.61222 2.88919 5.67054 2.5822 5.78827 2.29525C5.90601 2.0083 6.0808 1.74707 6.30253 1.52686C6.52426 1.30664 6.78851 1.13187 7.07987 1.01253C7.37123 0.893193 7.68389 0.831674 7.99971 0.831706V0.865072ZM15.8295 12.1984C15.8295 13.9317 11.7989 14.8651 7.99971 14.8651C4.20056 14.8651 0.169922 13.9317 0.169922 12.1984C0.169922 10.6717 3.26781 9.85833 5.92994 9.625C6.02022 9.61793 6.10966 9.64626 6.17861 9.70378C6.24756 9.76129 6.29036 9.84324 6.29758 9.93164C6.3048 10.02 6.27586 10.1078 6.21713 10.1753C6.15839 10.2428 6.07466 10.2846 5.98438 10.2917C2.77076 10.5783 0.850773 11.4917 0.850773 12.2051C0.850773 13.0384 3.57418 14.2051 7.99971 14.2051C12.4252 14.2051 15.1486 13.0384 15.1486 12.2051C15.1486 11.4917 13.2287 10.5783 10.015 10.2917C9.92476 10.2846 9.84102 10.2428 9.78229 10.1753C9.72355 10.1078 9.69461 10.02 9.70184 9.93164C9.70906 9.84324 9.75186 9.76129 9.82081 9.70378C9.88976 9.64626 9.97919 9.61793 10.0695 9.625C12.7316 9.825 15.8295 10.6384 15.8295 12.165V12.1984Z" fill="#0F2041" fill-opacity="0.6" stroke="#0F2041" stroke-opacity="0.6" stroke-width="0.5" stroke-miterlimit="10"/>
</g>
<defs>
<clipPath id="clip0_1345_3100">
<rect width="16" height="15" fill="white"/>
</clipPath>
</defs>
</svg>
